<svg width="128" height="128" viewBox="0 0 128 128" xmlns="http://www.w3.org/2000/svg">
  <defs>
    <linearGradient id="grad1" x1="0%" y1="0%" x2="100%" y2="100%">
      <stop offset="0%" style="stop-color:#667eea;stop-opacity:1" />
      <stop offset="100%" style="stop-color:#764ba2;stop-opacity:1" />
    </linearGradient>
  </defs>
  
  <!-- Background circle -->
  <circle cx="64" cy="64" r="60" fill="url(#grad1)" stroke="#4a5568" stroke-width="2"/>
  
  <!-- LyX text -->
  <text x="64" y="48" font-family="serif" font-size="28" font-weight="bold" fill="white" text-anchor="middle">L</text>
  <text x="64" y="78" font-family="serif" font-size="20" font-weight="bold" fill="white" text-anchor="middle">Y</text>
  <text x="64" y="98" font-family="serif" font-size="16" font-weight="bold" fill="white" text-anchor="middle">X</text>
  
  <!-- Keyboard symbol -->
  <rect x="20" y="85" width="88" height="25" rx="4" fill="none" stroke="white" stroke-width="2" opacity="0.7"/>
  <rect x="25" y="89" width="6" height="6" rx="1" fill="white" opacity="0.7"/>
  <rect x="33" y="89" width="6" height="6" rx="1" fill="white" opacity="0.7"/>
  <rect x="41" y="89" width="6" height="6" rx="1" fill="white" opacity="0.7"/>
  <rect x="49" y="89" width="14" height="6" rx="1" fill="white" opacity="0.7"/>
  <rect x="65" y="89" width="6" height="6" rx="1" fill="white" opacity="0.7"/>
  <rect x="73" y="89" width="6" height="6" rx="1" fill="white" opacity="0.7"/>
  <rect x="81" y="89" width="6" height="6" rx="1" fill="white" opacity="0.7"/>
  <rect x="89" y="89" width="14" height="6" rx="1" fill="white" opacity="0.7"/>
  
  <rect x="27" y="97" width="6" height="6" rx="1" fill="white" opacity="0.7"/>
  <rect x="35" y="97" width="6" height="6" rx="1" fill="white" opacity="0.7"/>
  <rect x="43" y="97" width="6" height="6" rx="1" fill="white" opacity="0.7"/>
  <rect x="51" y="97" width="26" height="6" rx="1" fill="white" opacity="0.7"/>
  <rect x="79" y="97" width="6" height="6" rx="1" fill="white" opacity="0.7"/>
  <rect x="87" y="97" width="6" height="6" rx="1" fill="white" opacity="0.7"/>
  <rect x="95" y="97" width="6" height="6" rx="1" fill="white" opacity="0.7"/>
</svg>
